<?xml version="1.0" encoding="UTF-8"?>
<!DOCTYPE svg PUBLIC "-//W3C//DTD SVG 1.1//EN" "http://www.w3.org/Graphics/SVG/1.1/DTD/svg11.dtd">
<!-- Creator: CorelDRAW -->
<svg xmlns="http://www.w3.org/2000/svg" xml:space="preserve" width="8.5in" height="11in" version="1.1" style="shape-rendering:geometricPrecision; text-rendering:geometricPrecision; image-rendering:optimizeQuality; fill-rule:evenodd; clip-rule:evenodd"
viewBox="0 0 8500 11000"
 xmlns:xlink="http://www.w3.org/1999/xlink"
 xmlns:xodm="http://www.corel.com/coreldraw/odm/2003">
 <defs>
  <style type="text/css">
   <![CDATA[
    .fil0 {fill:black;fill-rule:nonzero}
   ]]>
  </style>
 </defs>
 <g id="Layer_x0020_1">
  <metadata id="CorelCorpID_0Corel-Layer"/>
  <g id="_2650364955024">
   <path class="fil0" d="M3980.22 618.05c-859.74,47.71 -1692.73,322.06 -2404.33,792.03 -290.56,191.8 -519.96,378.36 -764.64,622.17 -318.76,317.29 -567.27,640.78 -793.32,1031.06 -65.95,113.56 -192.59,367.39 -244.69,488.57 -195.46,457.56 -316.37,915.12 -368.46,1393.2 -22.46,207.55 -26.28,291.04 -26.28,563 0,271.96 3.82,358.8 26.28,560.62 100.36,915.6 454.49,1773.47 1030.84,2497.74 342.18,429.89 769.42,810.63 1232.99,1099.29 706.34,439.91 1495.35,688.49 2325.95,732.86 183.52,9.54 480.77,5.25 661.89,-9.54 740.27,-62.02 1442.31,-285.32 2079.83,-661.29 477.91,-281.98 908.97,-649.84 1272.18,-1084.5 382.8,-458.52 682.44,-996.71 872.65,-1565.44 138.11,-413.19 219.83,-845.46 243.73,-1285.85 6.21,-116.89 6.21,-450.88 0,-567.78 -48.27,-900.33 -340.26,-1759.63 -848.75,-2497.74 -178.74,-259.56 -341.22,-453.74 -574.92,-687.54 -235.13,-234.74 -427.72,-395.06 -689.14,-574.46 -738.83,-507.18 -1591.41,-796.8 -2496.08,-846.89 -97.49,-5.25 -435.85,-5.25 -535.73,0.48l0 0zm335.49 1147c15.29,3.34 39.67,8.11 54,10.02 14.33,1.91 27.24,3.82 28.67,4.3 19.59,4.77 49.7,14.79 65,21.95 10.99,4.77 26.28,10.02 33.45,11.93 7.65,1.91 20.55,7.16 29.15,11.93 8.13,4.77 15.77,7.63 17.2,6.2 0.96,-0.95 4.78,0.96 8.13,5.25 3.34,3.81 8.12,7.16 10.51,7.16 2.39,0 13.38,6.2 24.37,13.36 10.99,7.16 31.06,18.13 43.97,24.81 16.72,8.11 50.18,37.22 113.74,99.72 49.22,48.19 89.37,89.7 89.37,92.09 0,1.91 7.65,13.36 16.73,25.76 9.08,11.93 16.72,24.33 16.72,28.15 0,3.34 2.87,8.11 6.21,10.98 3.35,2.86 14.34,21.95 24.37,42.46 10.04,20.52 20.07,41.03 22.46,45.33 2.39,4.77 4.3,10.97 4.3,13.83 0,2.86 5.73,16.22 12.43,30.06 6.69,13.36 11.94,25.29 11.94,26.72 0,1.43 1.91,10.02 4.3,19.56 7.17,25.76 19.59,93.04 24.85,133.12 2.87,21.94 4.3,456.61 4.3,1141.28 0.48,771.04 1.91,1105.98 5.26,1105.98 5.26,0 3.82,297.72 -3.82,1131.74 -2.87,262.42 -1.91,347.35 1.91,347.35 4.3,0 5.74,21.94 5.74,77.29l0 77.77 412.43 -410.8c412.91,-411.76 428.2,-425.59 512.31,-476.65 78.85,-47.71 193.55,-88.27 291.52,-103.06 57.83,-8.59 170.61,-7.63 224.61,1.91 67.86,12.41 157.23,39.6 206.45,62.98 24.85,11.93 46.36,21.47 47.31,21.47 7.17,0 115.65,76.34 144.33,101.15 75.51,66.32 156.75,175.1 190.2,253.83 26.28,61.55 44.44,110.69 44.92,119.76 0,5.25 3.35,21.47 7.17,35.78 41.58,152.68 21.51,347.35 -51.61,505.75 -24.85,53.44 -56.87,104.96 -90.32,146 -16.72,20.04 -32.02,39.12 -34.89,42.94 -2.39,3.81 -605.02,604.51 -1339.08,1335.47l-1333.83 1328.79 -548.15 -546.78c-301.56,-301.06 -548.63,-550.12 -549.11,-553.94 -0.48,-3.81 -350.78,-355.93 -777.55,-782.96 -427.24,-427.03 -787.58,-790.12 -800.96,-807.3 -96.06,-124.05 -143.37,-234.27 -169.18,-391.24 -7.17,-45.33 -7.17,-152.68 0,-202.78 5.74,-39.12 28.68,-131.21 42.06,-169.38 4.3,-11.93 18.16,-42.46 30.59,-68.23 98.93,-203.26 277.19,-351.16 494.15,-410.8 83.63,-22.43 125.69,-28.15 207.89,-28.15 76.46,0 123.78,5.73 188.77,23.86 23.89,6.2 51.61,13.84 62.13,16.22 49.22,11.93 161.53,73 234.17,127.39 15.77,11.93 196.89,189.42 402.87,394.1l373.72 372.16 0 -402.69c0.96,-1923.28 5.26,-3334.61 9.56,-3388.06 2.87,-32.92 9.56,-77.77 14.81,-100.19 4.78,-21.95 10.04,-44.37 10.99,-49.62 3.82,-18.13 26.28,-82.54 33.45,-97.33 4.3,-8.11 8.12,-16.22 8.6,-18.13 0,-2.39 5.73,-11.93 11.47,-21.47 6.21,-10.02 11.47,-20.04 11.47,-21.94 0,-16.22 31.07,-52.01 140.5,-162.22 131.43,-132.64 156.75,-153.16 222.7,-180.35 83.63,-34.83 118.52,-46.76 152.93,-51.53 53.04,-8.11 78.37,-12.88 80.76,-15.27 5.26,-5.25 177.78,-0.95 204.54,5.25l0 0z"/>
  </g>
 </g>
</svg>
