<!DOCTYPE svg PUBLIC "-//W3C//DTD SVG 1.1//EN" "http://www.w3.org/Graphics/SVG/1.1/DTD/svg11.dtd">
<!-- Uploaded to: SVG Repo, www.svgrepo.com, Transformed by: SVG Repo Mixer Tools -->
<svg fill="#ffffff" version="1.1" id="Capa_1" xmlns="http://www.w3.org/2000/svg" xmlns:xlink="http://www.w3.org/1999/xlink" width="800px" height="800px" viewBox="0 0 47.00 47.00" xml:space="preserve" stroke="#ffffff" stroke-width="0.00047000000000000004">
<g id="SVGRepo_bgCarrier" stroke-width="0"/>
<g id="SVGRepo_tracerCarrier" stroke-linecap="round" stroke-linejoin="round"/>
<g id="SVGRepo_iconCarrier"> <g> <g> <path d="M24.104,41.577c-0.025,0-0.053-0.001-0.078-0.001c-1.093-0.035-2.025-0.802-2.271-1.867l-5.46-23.659l-3.199,8.316 c-0.357,0.93-1.252,1.544-2.249,1.544H2.41c-1.331,0-2.41-1.079-2.41-2.41c0-1.331,1.079-2.41,2.41-2.41h6.78l5.433-14.122 c0.38-0.989,1.351-1.612,2.418-1.54c1.057,0.074,1.941,0.831,2.18,1.863l5.186,22.474l4.618-15.394 c0.276-0.923,1.078-1.592,2.035-1.702c0.953-0.107,1.889,0.36,2.365,1.198l4.127,7.222h7.037c1.331,0,2.41,1.079,2.41,2.41 c0,1.331-1.079,2.41-2.41,2.41h-8.436c-0.865,0-1.666-0.463-2.094-1.214l-2.033-3.559l-5.616,18.722 C26.104,40.88,25.164,41.577,24.104,41.577z"/> </g> </g> </g>
</svg>