<?xml version="1.0" encoding="UTF-8" standalone="no"?>
<!DOCTYPE svg PUBLIC "-//W3C//DTD SVG 1.1//EN" "http://www.w3.org/Graphics/SVG/1.1/DTD/svg11.dtd">
<svg width="100%" height="100%" viewBox="0 0 200 200" version="1.1" xmlns="http://www.w3.org/2000/svg" xmlns:xlink="http://www.w3.org/1999/xlink" xml:space="preserve" xmlns:serif="http://www.serif.com/" style="fill-rule:evenodd;clip-rule:evenodd;stroke-linejoin:round;stroke-miterlimit:2;">
    <g id="layer1">
        <path id="path2413" d="M100,0C44.8,0 0,44.8 0,100C-0,155.2 44.8,200 100,200C155.2,200 200,155.2 200,100C200,44.8 155.2,0 100,0ZM100,12.812C148.13,12.812 187.19,51.87 187.19,100C187.19,148.13 148.13,187.19 100,187.19C51.87,187.19 12.812,148.13 12.812,100C12.812,51.87 51.87,12.812 100,12.812ZM101.47,34.062C96.02,34.092 90.817,34.799 86.188,36.125C81.489,37.471 77.062,39.609 73.312,42.344C70.074,44.706 66.979,47.735 64.625,50.875C60.466,56.424 58.164,62.526 57.562,69.562C57.522,70.03 57.492,70.43 57.5,70.438C57.516,70.454 79.202,73.125 79.312,73.125C79.365,73.125 79.425,72.891 79.594,72.188C81.535,64.103 85.08,58.667 90.562,55.375C94.882,52.781 100.37,51.763 106.34,52.406C109.08,52.701 111.55,53.366 113.72,54.406C116.43,55.707 118.9,57.767 120.66,60.219C122.2,62.375 123.12,64.803 123.41,67.531C123.49,68.29 123.46,70.011 123.38,70.75C123.15,72.576 122.68,74.128 121.88,75.719C121.07,77.316 120.4,78.233 119.12,79.531C117.09,81.608 113.94,84.36 108.34,88.938C104.74,91.882 102.3,94.094 100.22,96.281C95.277,101.46 93.029,105.35 91.656,111C90.751,114.72 90.4,118.55 90.5,124.19C90.525,125.59 90.562,126.92 90.562,127.16L90.562,127.59L112.16,127.59L112.19,125.19C112.22,121.92 112.4,119.82 112.75,117.78C113.32,114.51 114.18,112.78 116.69,109.97C118.29,108.17 120.39,106.21 123.62,103.5C128.39,99.509 131.73,96.51 134.88,93.375C139.79,88.468 142.34,85.115 144.16,81.188C145.59,78.096 146.38,75.022 146.62,71.656C146.68,70.84 146.69,68.626 146.62,67.688C146.17,60.645 143.52,54.435 138.47,48.656C137.67,47.747 135.69,45.769 134.75,44.938C129.79,40.544 124.06,37.585 117.19,35.844C113,34.782 108.96,34.244 103.84,34.094C103.06,34.071 102.25,34.058 101.47,34.062ZM90.562,137.662L90.562,159.662L112.56,159.662L112.56,137.662L90.562,137.662Z" style="fill:white;fill-rule:nonzero;"/>
    </g>
</svg>
