<svg viewBox="0 0 63 62" xmlns="http://www.w3.org/2000/svg" xml:space="preserve" style="fill-rule:evenodd;clip-rule:evenodd;stroke-linejoin:round;stroke-miterlimit:2">
    <path d="M5.932 22.583a2.82 2.82 0 0 0-2.82-2.82h-.013a2.82 2.82 0 0 0-2.82 2.82v16.976a2.82 2.82 0 0 0 2.82 2.82h.013a2.82 2.82 0 0 0 2.82-2.82V22.583ZM22.038 22.689a2.927 2.927 0 0 0-2.926-2.926H19.1a2.927 2.927 0 0 0-2.926 2.926v16.764a2.927 2.927 0 0 0 2.926 2.926h.013a2.927 2.927 0 0 0 2.926-2.926V22.689ZM54.669 23.002a3.24 3.24 0 0 0-3.239-3.239h-.015a3.24 3.24 0 0 0-3.239 3.239V39.14a3.24 3.24 0 0 0 3.24 3.239h.014a3.24 3.24 0 0 0 3.239-3.239V23.002ZM38.675 14.043a3.24 3.24 0 0 0-3.238-3.24h-.015a3.24 3.24 0 0 0-3.24 3.24v34.71a3.24 3.24 0 0 0 3.24 3.239h.015a3.24 3.24 0 0 0 3.238-3.239v-34.71ZM46.749 25.55a3.24 3.24 0 0 0-3.239-3.238h-.015a3.24 3.24 0 0 0-3.239 3.239v10.996a3.24 3.24 0 0 0 3.239 3.24h.015a3.24 3.24 0 0 0 3.239-3.24V25.551ZM30.793 3.386a3.24 3.24 0 0 0-3.239-3.24h-.015a3.24 3.24 0 0 0-3.239 3.24V58.64a3.24 3.24 0 0 0 3.239 3.24h.015a3.24 3.24 0 0 0 3.239-3.24V3.386ZM63.09 29.513a3.24 3.24 0 0 0-3.24-3.239h-.015a3.24 3.24 0 0 0-3.238 3.24v1.74a3.24 3.24 0 0 0 3.238 3.24h.015a3.24 3.24 0 0 0 3.24-3.24v-1.74ZM14.278 14.409a3.165 3.165 0 0 0-3.162-3.164h-.02a3.165 3.165 0 0 0-3.163 3.164v33.554a3.165 3.165 0 0 0 3.162 3.164h.02a3.165 3.165 0 0 0 3.163-3.164V14.41Z"/>
</svg>
