<svg viewBox="0 0 63 62" xmlns="http://www.w3.org/2000/svg" xml:space="preserve" style="fill-rule:evenodd;clip-rule:evenodd;stroke-linejoin:round;stroke-miterlimit:2">
    <path d="M5.478 22.583c0-1.556-1.06-2.82-2.367-2.82H3.1c-1.307 0-2.367 1.264-2.367 2.82v16.976c0 1.557 1.06 2.82 2.367 2.82h.011c1.307 0 2.367-1.263 2.367-2.82V22.583Z" style="fill:#fff" transform="matrix(1.19122 0 0 1 -.594 0)"/>
    <path d="M5.478 22.689c0-1.615-1.06-2.926-2.367-2.926H3.1c-1.307 0-2.367 1.311-2.367 2.926v16.764c0 1.615 1.06 2.926 2.367 2.926h.011c1.307 0 2.367-1.311 2.367-2.926V22.689Z" style="fill:#fff" transform="matrix(1.23596 0 0 1 15.267 0)"/>
    <path d="M5.478 23.002c0-1.788-1.06-3.239-2.367-3.239H3.1c-1.307 0-2.367 1.451-2.367 3.239V39.14c0 1.788 1.06 3.239 2.367 3.239h.011c1.307 0 2.367-1.451 2.367-3.239V23.002Z" style="fill:#fff" transform="matrix(1.3683 0 0 1 47.173 0)"/>
    <path d="M5.478 21.542c0-.982-1.06-1.779-2.367-1.779H3.1c-1.307 0-2.367.797-2.367 1.779v19.059c0 .981 1.06 1.778 2.367 1.778h.011c1.307 0 2.367-.797 2.367-1.778V21.542Z" style="fill:#fff" transform="matrix(1.3683 0 0 1.82121 31.18 -25.19)"/>
    <path d="M5.478 23.955c0-2.314-1.06-4.192-2.367-4.192H3.1c-1.307 0-2.367 1.878-2.367 4.192v14.232c0 2.314 1.06 4.192 2.367 4.192h.011c1.307 0 2.367-1.878 2.367-4.192V23.955Z" style="fill:#fff" transform="matrix(1.3683 0 0 .77268 39.253 7.041)"/>
    <path d="M5.478 20.95c0-.655-1.06-1.187-2.367-1.187H3.1c-1.307 0-2.367.532-2.367 1.187v20.242c0 .655 1.06 1.187 2.367 1.187h.011c1.307 0 2.367-.532 2.367-1.187V20.95Z" style="fill:#fff" transform="matrix(1.3683 0 0 2.72972 23.297 -53.802)"/>
    <path d="M5.478 28.676c0-4.919-1.06-8.913-2.367-8.913H3.1c-1.307 0-2.367 3.994-2.367 8.913v4.79c0 4.919 1.06 8.913 2.367 8.913h.011c1.307 0 2.367-3.994 2.367-8.913v-4.79Z" style="fill:#fff" transform="matrix(1.3683 0 0 .36342 55.594 19.092)"/>
    <path d="M5.478 21.557c0-.99-1.06-1.794-2.365-1.794h-.015c-1.305 0-2.365.804-2.365 1.794v19.028c0 .99 1.06 1.794 2.365 1.794h.015c1.305 0 2.365-.804 2.365-1.794V21.557Z" style="fill:#fff" transform="matrix(1.33725 0 0 1.76341 6.953 -23.605)"/>
</svg>
