<?xml version="1.0" encoding="UTF-8" standalone="no"?>
<!DOCTYPE svg PUBLIC "-//W3C//DTD SVG 1.1//EN" "http://www.w3.org/Graphics/SVG/1.1/DTD/svg11.dtd">
<svg width="100%" height="100%" viewBox="0 0 63 62" version="1.1" xmlns="http://www.w3.org/2000/svg" xmlns:xlink="http://www.w3.org/1999/xlink" xml:space="preserve" xmlns:serif="http://www.serif.com/" style="fill-rule:evenodd;clip-rule:evenodd;stroke-linejoin:round;stroke-miterlimit:2;">
    <g transform="matrix(1.19122,0,0,1,-0.59384,0)">
        <path d="M5.478,22.583C5.478,21.027 4.418,19.763 3.111,19.763L3.1,19.763C1.793,19.763 0.733,21.027 0.733,22.583L0.733,39.559C0.733,41.116 1.793,42.379 3.1,42.379L3.111,42.379C4.418,42.379 5.478,41.116 5.478,39.559L5.478,22.583Z"/>
    </g>
    <g transform="matrix(1.23596,0,0,1,15.2672,0)">
        <path d="M5.478,22.689C5.478,21.074 4.418,19.763 3.111,19.763L3.1,19.763C1.793,19.763 0.733,21.074 0.733,22.689L0.733,39.453C0.733,41.068 1.793,42.379 3.1,42.379L3.111,42.379C4.418,42.379 5.478,41.068 5.478,39.453L5.478,22.689Z"/>
    </g>
    <g transform="matrix(1.3683,0,0,1,47.1734,0)">
        <path d="M5.478,23.002C5.478,21.214 4.418,19.763 3.111,19.763L3.1,19.763C1.793,19.763 0.733,21.214 0.733,23.002L0.733,39.14C0.733,40.928 1.793,42.379 3.1,42.379L3.111,42.379C4.418,42.379 5.478,40.928 5.478,39.14L5.478,23.002Z"/>
    </g>
    <g transform="matrix(1.3683,0,0,1.82121,31.1798,-25.1895)">
        <path d="M5.478,21.542C5.478,20.56 4.418,19.763 3.111,19.763L3.1,19.763C1.793,19.763 0.733,20.56 0.733,21.542L0.733,40.601C0.733,41.582 1.793,42.379 3.1,42.379L3.111,42.379C4.418,42.379 5.478,41.582 5.478,40.601L5.478,21.542Z"/>
    </g>
    <g transform="matrix(1.3683,0,0,0.772678,39.2533,7.0412)">
        <path d="M5.478,23.955C5.478,21.641 4.418,19.763 3.111,19.763L3.1,19.763C1.793,19.763 0.733,21.641 0.733,23.955L0.733,38.187C0.733,40.501 1.793,42.379 3.1,42.379L3.111,42.379C4.418,42.379 5.478,40.501 5.478,38.187L5.478,23.955Z"/>
    </g>
    <g transform="matrix(1.3683,0,0,2.72972,23.2972,-53.8018)">
        <path d="M5.478,20.95C5.478,20.295 4.418,19.763 3.111,19.763L3.1,19.763C1.793,19.763 0.733,20.295 0.733,20.95L0.733,41.192C0.733,41.847 1.793,42.379 3.1,42.379L3.111,42.379C4.418,42.379 5.478,41.847 5.478,41.192L5.478,20.95Z"/>
    </g>
    <g transform="matrix(1.3683,0,0,0.363416,55.5937,19.0919)">
        <path d="M5.478,28.676C5.478,23.757 4.418,19.763 3.111,19.763L3.1,19.763C1.793,19.763 0.733,23.757 0.733,28.676L0.733,33.466C0.733,38.385 1.793,42.379 3.1,42.379L3.111,42.379C4.418,42.379 5.478,38.385 5.478,33.466L5.478,28.676Z"/>
    </g>
    <g transform="matrix(1.33725,0,0,1.76341,6.95266,-23.6049)">
        <path d="M5.478,21.557C5.478,20.567 4.418,19.763 3.113,19.763L3.098,19.763C1.793,19.763 0.733,20.567 0.733,21.557L0.733,40.585C0.733,41.575 1.793,42.379 3.098,42.379L3.113,42.379C4.418,42.379 5.478,41.575 5.478,40.585L5.478,21.557Z"/>
    </g>
</svg>
