<?xml version="1.0" standalone="no"?>
<!DOCTYPE svg PUBLIC "-//W3C//DTD SVG 20010904//EN"
 "http://www.w3.org/TR/2001/REC-SVG-20010904/DTD/svg10.dtd">
<svg version="1.0" xmlns="http://www.w3.org/2000/svg"
 width="2043.000000pt" height="2055.000000pt" viewBox="0 0 2043.000000 2055.000000"
 preserveAspectRatio="xMidYMid meet">

<g transform="translate(0.000000,2055.000000) scale(0.100000,-0.100000)"
fill="#000000" stroke="none">
<path d="M9645 20519 c-1799 -100 -3542 -675 -5031 -1660 -608 -402 -1088
-793 -1600 -1304 -667 -665 -1187 -1343 -1660 -2161 -138 -238 -403 -770 -512
-1024 -409 -959 -662 -1918 -771 -2920 -47 -435 -55 -610 -55 -1180 0 -570 8
-752 55 -1175 210 -1919 951 -3717 2157 -5235 716 -901 1610 -1699 2580 -2304
1478 -922 3129 -1443 4867 -1536 384 -20 1006 -11 1385 20 1549 130 3018 598
4352 1386 1000 591 1902 1362 2662 2273 801 961 1428 2089 1826 3281 289 866
460 1772 510 2695 13 245 13 945 0 1190 -101 1887 -712 3688 -1776 5235 -374
544 -714 951 -1203 1441 -492 492 -895 828 -1442 1204 -1546 1063 -3330 1670
-5223 1775 -204 11 -912 11 -1121 -1z m1720 -3525 c631 -631 1148 -1153 1149
-1161 1 -8 734 -746 1627 -1641 894 -895 1648 -1656 1676 -1692 201 -260 300
-491 354 -820 15 -95 15 -320 0 -425 -12 -82 -60 -275 -88 -355 -9 -25 -38
-89 -64 -143 -207 -426 -580 -736 -1034 -861 -175 -47 -263 -59 -435 -59 -160
0 -259 12 -395 50 -49 13 -108 29 -130 34 -103 25 -338 153 -490 267 -33 25
-412 397 -842 826 l-783 780 0 -844 c-2 -4031 -11 -6989 -20 -7101 -6 -69 -20
-163 -31 -210 -10 -46 -21 -93 -23 -104 -8 -38 -55 -173 -70 -204 -9 -17 -17
-34 -18 -38 0 -5 -12 -25 -24 -45 -13 -21 -24 -42 -24 -46 0 -34 -65 -109
-294 -340 -275 -278 -328 -321 -466 -378 -177 -74 -244 -96 -325 -109 -22 -4
-62 -11 -90 -17 -84 -17 -431 -20 -500 -4 -33 8 -85 18 -115 22 -30 4 -57 8
-60 9 -41 10 -104 31 -136 46 -23 10 -55 21 -70 25 -16 4 -43 15 -61 25 -17
10 -33 16 -36 13 -2 -2 -10 2 -17 11 -7 8 -17 15 -22 15 -5 0 -28 13 -51 28
-23 15 -64 38 -92 52 -35 17 -105 78 -237 209 -104 101 -188 188 -188 193 0 4
-16 28 -35 54 -19 25 -35 51 -35 59 0 7 -6 17 -13 23 -7 6 -30 46 -51 89 -21
43 -42 86 -47 95 -5 10 -9 23 -9 29 0 6 -10 32 -23 58 -13 25 -24 48 -24 51
-1 3 -6 23 -12 46 -16 58 -41 197 -53 284 -6 46 -9 957 -9 2393 -1 1615 -4
2317 -11 2317 -11 0 -8 624 8 2373 6 549 4 727 -4 727 -9 0 -12 46 -12 162 l0
163 -862 -861 c-865 -863 -897 -892 -1073 -999 -165 -100 -405 -185 -610 -216
-121 -18 -357 -16 -470 4 -142 26 -329 83 -432 132 -52 25 -97 45 -99 45 -15
0 -242 160 -302 212 -158 139 -328 367 -398 532 -55 129 -93 232 -94 251 0 11
-7 45 -15 75 -87 320 -45 728 108 1060 50 108 117 218 188 307 34 43 1322
1337 2863 2875 1541 1538 2802 2797 2803 2797 1 1 517 -515 1148 -1145z"/>
</g>
</svg>
