<?xml version="1.0" encoding="UTF-8"?>
<!DOCTYPE svg PUBLIC "-//W3C//DTD SVG 1.1//EN" "http://www.w3.org/Graphics/SVG/1.1/DTD/svg11.dtd">
<!-- Creator: CorelDRAW -->
<svg xmlns="http://www.w3.org/2000/svg" xml:space="preserve" width="8.5in" height="11in" version="1.1" style="shape-rendering:geometricPrecision; text-rendering:geometricPrecision; image-rendering:optimizeQuality; fill-rule:evenodd; clip-rule:evenodd"
viewBox="0 0 8500 11000"
 xmlns:xlink="http://www.w3.org/1999/xlink"
 xmlns:xodm="http://www.corel.com/coreldraw/odm/2003">
 <defs>
  <style type="text/css">
   <![CDATA[
    .fil0 {fill:black;fill-rule:nonzero}
   ]]>
  </style>
 </defs>
 <g id="Layer_x0020_1">
  <metadata id="CorelCorpID_0Corel-Layer"/>
  <g id="_2650364941632">
   <path class="fil0" d="M3980.22 618.05c-859.74,47.71 -1692.73,322.06 -2404.33,792.03 -290.56,191.8 -519.96,378.36 -764.64,622.17 -318.76,317.29 -567.27,640.78 -793.32,1031.06 -65.95,113.56 -192.59,367.39 -244.69,488.57 -195.46,457.56 -316.37,915.12 -368.46,1393.2 -22.46,207.55 -26.28,291.04 -26.28,563 0,271.96 3.82,358.8 26.28,560.62 100.36,915.6 454.49,1773.47 1030.84,2497.74 342.18,429.89 769.42,810.63 1232.99,1099.29 706.34,439.91 1495.35,688.49 2325.95,732.86 183.52,9.54 480.77,5.25 661.89,-9.54 740.27,-62.02 1442.31,-285.32 2079.83,-661.29 477.91,-281.98 908.97,-649.84 1272.18,-1084.5 382.8,-458.52 682.44,-996.71 872.65,-1565.44 138.11,-413.19 219.83,-845.46 243.73,-1285.85 6.21,-116.89 6.21,-450.88 0,-567.78 -48.27,-900.33 -340.26,-1759.63 -848.75,-2497.74 -178.74,-259.56 -341.22,-453.74 -574.92,-687.54 -235.13,-234.74 -427.72,-395.06 -689.14,-574.46 -738.83,-507.18 -1591.41,-796.8 -2496.08,-846.89 -97.49,-5.25 -435.85,-5.25 -535.73,0.48l0 0zm821.99 1681.86c301.56,301.06 548.63,550.12 549.11,553.94 0.48,3.81 350.78,355.93 777.55,782.96 427.24,427.03 787.58,790.12 800.96,807.3 96.06,124.05 143.37,234.27 169.18,391.24 7.17,45.33 7.17,152.68 0,202.78 -5.74,39.13 -28.68,131.21 -42.06,169.38 -4.3,11.93 -18.16,42.46 -30.59,68.23 -98.93,203.26 -277.19,351.16 -494.15,410.8 -83.63,22.43 -125.69,28.15 -207.89,28.15 -76.46,0 -123.78,-5.73 -188.77,-23.86 -23.41,-6.2 -51.61,-13.84 -62.13,-16.22 -49.22,-11.93 -161.53,-73 -234.17,-127.39 -15.77,-11.93 -196.89,-189.42 -402.39,-394.1l-374.2 -372.16 0 402.69c-0.96,1923.28 -5.26,3334.61 -9.56,3388.06 -2.87,32.92 -9.56,77.77 -14.81,100.19 -4.78,21.95 -10.04,44.37 -10.99,49.62 -3.82,18.13 -26.28,82.54 -33.45,97.33 -4.3,8.11 -8.13,16.22 -8.6,18.13 0,2.39 -5.74,11.93 -11.47,21.47 -6.21,10.02 -11.47,20.04 -11.47,21.94 0,16.22 -31.07,52.01 -140.5,162.22 -131.43,132.64 -156.75,153.16 -222.7,180.35 -84.59,35.31 -116.61,45.81 -155.31,52.01 -10.52,1.91 -29.63,5.25 -43.01,8.11 -40.15,8.11 -205.98,9.54 -238.95,1.91 -15.77,-3.82 -40.62,-8.59 -54.96,-10.5 -14.34,-1.91 -27.24,-3.82 -28.68,-4.3 -19.59,-4.77 -49.7,-14.79 -64.99,-21.95 -10.99,-4.77 -26.29,-10.02 -33.45,-11.93 -7.65,-1.91 -20.55,-7.16 -29.15,-11.93 -8.12,-4.77 -15.77,-7.63 -17.2,-6.2 -0.96,0.95 -4.78,-0.96 -8.12,-5.25 -3.35,-3.81 -8.13,-7.16 -10.52,-7.16 -2.39,0 -13.38,-6.2 -24.37,-13.36 -10.99,-7.16 -30.58,-18.13 -43.96,-24.81 -16.73,-8.11 -50.18,-37.21 -113.26,-99.72 -49.7,-48.19 -89.85,-89.7 -89.85,-92.09 0,-1.91 -7.65,-13.36 -16.72,-25.76 -9.08,-11.93 -16.73,-24.33 -16.73,-28.15 0,-3.34 -2.87,-8.11 -6.21,-10.98 -3.34,-2.86 -14.33,-21.94 -24.37,-42.46 -10.04,-20.52 -20.07,-41.04 -22.46,-45.33 -2.39,-4.77 -4.3,-10.97 -4.3,-13.83 0,-2.86 -4.78,-15.27 -10.99,-27.67 -6.21,-11.93 -11.47,-22.9 -11.47,-24.33 -0.48,-1.43 -2.87,-10.97 -5.73,-21.95 -7.65,-27.67 -19.59,-93.99 -25.33,-135.5 -2.87,-21.95 -4.3,-456.61 -4.3,-1141.76 -0.48,-770.56 -1.91,-1105.5 -5.26,-1105.5 -5.26,0 -3.82,-297.72 3.82,-1132.21 2.87,-261.94 1.91,-346.87 -1.91,-346.87 -4.3,0 -5.74,-21.94 -5.74,-77.29l0 -77.77 -411.95 410.8c-413.39,411.76 -428.68,425.59 -512.79,476.65 -78.85,47.71 -193.55,88.27 -291.52,103.06 -57.83,8.59 -170.61,7.63 -224.61,-1.91 -67.86,-12.41 -157.23,-39.6 -206.45,-62.98 -24.85,-11.93 -46.36,-21.47 -47.31,-21.47 -7.17,0 -115.65,-76.34 -144.33,-101.15 -75.51,-66.32 -156.75,-175.11 -190.2,-253.83 -26.28,-61.55 -44.44,-110.69 -44.92,-119.76 0,-5.25 -3.35,-21.47 -7.17,-35.78 -41.58,-152.68 -21.5,-347.35 51.61,-505.75 23.89,-51.53 55.91,-104.01 89.84,-146.48 16.25,-20.52 631.79,-637.91 1368.24,-1371.73 736.45,-733.81 1339.08,-1334.52 1339.56,-1334.52 0.48,-0.48 247.07,245.72 548.63,546.31l0 0z"/>
  </g>
 </g>
</svg>
